# xmcd
#
# Track frame offsets: 
#        150
#        13386
#        24169
#        38244
#        52492
#        63962
#        82412
#        92719
#        102716
#        117763
#        140272
#        156361
#        171272
#        185712
#        200966
#        215254
#        224182
#        238387
#        250905
#        272056
#        283598
#        294220
#        307706
#        334540
#        352394
#
# Disc length: 4864 seconds
#
# Revision: 0
# Processed by: cddbd v1.5.2PL0 Copyright (c) Steve Scherf et al.
# Submitted via: ExactAudioCopy v0.95b3
#
DISCID=9912fe19
DTITLE=Various Artist - A Celtic Companion: The Genius of Shane MacGowan
DYEAR=1900
DGENRE=Celtic
TTITLE0=Shane MacGowan and the Popes - If I Should Fall From Grace With 
TTITLE0=God (live)
TTITLE1=The Pogues - Rake at the Gates of Hell
TTITLE2=The Pogues - The Limerick Rake
TTITLE3=The Pogues - The Leaving of Liverpool
TTITLE4=The Pogues - The Wild Rover
TTITLE5=The Dubliners and The Pogues - The Irish Rover
TTITLE6=The Dubliners and The Pogues - Rare Old Mountain Dew
TTITLE7=The Pogues - The Parting Glass
TTITLE8=Shane MacGowan and Christy Moore - Spancil Hill
TTITLE9=The Pogues - Thousands are Sailing (live)
TTITLE10=The Nips - Gabrielle
TTITLE11=The Pogues - Yeah Yeah Yeah Yeah
TTITLE12=Shane MacGowan and the Popes - Cracklin' Rosie
TTITLE13=Shane MacGowan - Silent Scream
TTITLE14=The Pogues - Lullaby of London (live)
TTITLE15=Cafe Orchestra with Shane MacGowan - An Irish Airman Foresees
TTITLE15=His Death
TTITLE16=The Pogues - Bastard Landlord
TTITLE17=The Pogues - The Broad Majestic Shannon (live)
TTITLE18=The Pogues with Kirsty MacColl - Miss Otis Regrets, Just One 
TTITLE18=of Those Things
TTITLE19=Shane MacGowan and the Popes - More Pricks Than Kicks (live)
TTITLE20=Shane MacGowan - Lucy
TTITLE21=Shane MacGowan and Nick Cave - What a Wonderful World
TTITLE22=Shane MacGowan and the Popes with Shane's Mum - A Fairytale of 
TTITLE22=New York (live)
TTITLE23=Shane MacGowan and Maire Brennan - You're the One
TTITLE24=Shane MacGowan and the Popes - Angel of Death (live)
EXTD=
EXTT0=
EXTT1=
EXTT2=
EXTT3=
EXTT4=
EXTT5=
EXTT6=
EXTT7=
EXTT8=
EXTT9=
EXTT10=
EXTT11=
EXTT12=
EXTT13=
EXTT14=
EXTT15=
EXTT16=
EXTT17=
EXTT18=
EXTT19=
EXTT20=
EXTT21=
EXTT22=
EXTT23=
EXTT24=
PLAYORDER=
